# xmcd
#
# Track frame offsets: 
#        150
#        18600
#        34921
#        55329
#        67303
#        83248
#        96970
#        117297
#        137378
#        157485
#        173914
#        190293
#
# Disc length: 2772 seconds
#
# Revision: 0
# Processed by: cddbd v1.5.2PL0 Copyright (c) Steve Scherf et al.
# Submitted via: ExactAudioCopy v0.95b4
#
DISCID=b00ad20c
DTITLE=Martin Halla - Winter Days
DYEAR=2013
DGENRE=Ballad
TTITLE0=Illuminate The Sky
TTITLE1=Ignited
TTITLE2=The River
TTITLE3=If He's The One
TTITLE4=All The Red Lights
TTITLE5=Winter Days
TTITLE6=Falling Slowly
TTITLE7=Everybody's Angel
TTITLE8=When I See You
TTITLE9=In The City
TTITLE10=Time's Up
TTITLE11=My Little Wonder
EXTD=
EXTT0=
EXTT1=
EXTT2=
EXTT3=
EXTT4=
EXTT5=
EXTT6=
EXTT7=
EXTT8=
EXTT9=
EXTT10=
EXTT11=
PLAYORDER=
